<svg width="74" height="59" viewBox="0 0 74 59" fill="none" xmlns="http://www.w3.org/2000/svg">
<path d="M34.5 1.00774C14.5 -3.99227 0 10.0077 0 34.2577C0 50.7577 6.5 58.2577 15.5 58.2577C23.25 58.2577 29 52.7577 29 44.7577C29.25 35.7577 20.5 28.5077 9.5 32.5077C8.75 17.5077 19.25 6.00774 31.75 9.75774L34.5 1.00774ZM73.75 1.00774C53.75 -3.99227 39.25 10.0077 39.25 34.2577C39.25 50.7577 45.75 58.2577 54.75 58.2577C62.75 58.2577 68.25 52.7577 68.25 44.7577C68.5 35.7577 59.75 28.5077 48.75 32.5077C48 17.5077 58.5 6.00774 71.25 9.75774L73.75 1.00774Z" fill="#FFD2C4"/>
</svg>
